<?xml version="1.0" encoding="UTF-8" standalone="no"?>
<svg
   xmlns:dc="http://purl.org/dc/elements/1.1/"
   xmlns:cc="http://creativecommons.org/ns#"
   xmlns:rdf="http://www.w3.org/1999/02/22-rdf-syntax-ns#"
   xmlns:svg="http://www.w3.org/2000/svg"
   xmlns="http://www.w3.org/2000/svg"
   xmlns:sodipodi="http://sodipodi.sourceforge.net/DTD/sodipodi-0.dtd"
   xmlns:inkscape="http://www.inkscape.org/namespaces/inkscape"
   sodipodi:docname="backboneLogo.svg"
   inkscape:version="1.0 (6e3e5246a0, 2020-05-07)"
   id="svg8"
   version="1.1"
   viewBox="0 0 210 297"
   height="297mm"
   width="210mm">
  <defs
     id="defs2" />
  <sodipodi:namedview
     inkscape:window-maximized="0"
     inkscape:window-y="27"
     inkscape:window-x="50"
     inkscape:window-height="1016"
     inkscape:window-width="1436"
     inkscape:guide-bbox="true"
     showguides="true"
     showgrid="false"
     inkscape:document-rotation="0"
     inkscape:current-layer="layer1"
     inkscape:document-units="mm"
     inkscape:cy="393.8549"
     inkscape:cx="465.48724"
     inkscape:zoom="0.98994949"
     inkscape:pageshadow="2"
     inkscape:pageopacity="0.0"
     borderopacity="1.0"
     bordercolor="#666666"
     pagecolor="#ffffff"
     id="base" />
  <metadata
     id="metadata5">
    <rdf:RDF>
      <cc:Work
         rdf:about="">
        <dc:format>image/svg+xml</dc:format>
        <dc:type
           rdf:resource="http://purl.org/dc/dcmitype/StillImage" />
        <dc:title></dc:title>
      </cc:Work>
    </rdf:RDF>
  </metadata>
  <g
     id="layer1"
     inkscape:groupmode="layer"
     inkscape:label="Layer 1">
    <g
       id="g316">
      <path
         id="path228-3-6"
         style="fill:#000000;stroke:none;stroke-width:0.144015"
         d="m 76.856354,79.721186 c -0.838808,0.975877 -1.427014,1.98806 -1.862936,3.288599 -0.266983,0.797216 -0.409647,2.080394 -1.065051,2.574539 -0.322403,0.243137 -0.744948,0.221646 -1.112078,0.257823 l -2.244823,0.221075 c -0.298919,0.02944 -1.08543,0.04878 -1.185458,0.488699 -0.09178,0.40367 0.581596,0.567456 0.800984,0.619138 0.7708,0.181865 1.556104,0.222843 2.334741,0.331921 0.276715,0.03845 0.725453,0.03287 0.645441,0.49666 -0.200793,1.161449 -0.714489,2.348467 -1.073838,3.453946 -0.784321,2.413463 -1.584685,4.820826 -2.369365,7.23431 -1.825085,5.615424 -3.451646,11.314604 -5.338691,16.902904 -0.7283,2.15605 -1.443943,4.32393 -2.049486,6.53311 -0.137184,0.49977 -0.269359,1.02489 -0.301792,1.55183 -0.01087,0.17835 -0.03199,0.49727 0.137977,0.5879 0.169985,0.0908 0.366197,-0.11826 0.48059,-0.24067 0.341825,-0.3661 0.639971,-0.78978 0.911571,-1.22909 1.135467,-1.83694 2.259134,-3.67772 3.338298,-5.56368 1.633546,-2.85637 3.484137,-5.59964 4.872572,-8.63854 1.737254,-3.80245 2.808571,-7.89525 3.585311,-12.102904 0.378269,-2.050432 0.589139,-4.139138 0.98857,-6.185261 0.08632,-0.445314 0.188717,-1.778461 0.601512,-1.952949 0.392573,-0.165764 1.078095,0.03631 1.492417,0.06798 1.236773,0.09377 2.45837,0.244532 3.681428,0.486248 0.319445,0.06307 1.423559,0.169018 1.501717,0.627099 0.09112,0.529674 -0.283213,1.325639 -0.444934,1.803526 -0.540435,1.594634 -1.237472,3.128479 -1.849498,4.686712 -2.251962,5.732909 -4.331097,11.558419 -6.618201,17.272189 -0.770733,1.92546 -1.502174,3.86316 -2.111499,5.86988 -0.14048,0.46301 -0.262329,0.95003 -0.339516,1.43364 -0.02024,0.1265 -0.09679,0.45305 0.03204,0.53155 0.158523,0.0965 0.405789,-0.20101 0.510564,-0.30681 0.447458,-0.44936 0.836695,-0.98788 1.230416,-1.50099 1.626587,-2.12014 3.093312,-4.46271 4.522202,-6.77133 1.489938,-2.40713 3.034443,-4.81975 4.276225,-7.42232 0.984316,-2.0641 1.741826,-4.28331 2.422075,-6.509224 0.560602,-1.834853 1.012971,-3.722433 1.402498,-5.617562 0.17792,-0.867283 0.35986,-2.266831 0.907439,-2.92422 0.267322,-0.320802 0.888373,-0.06473 1.216462,-0.0012 0.834189,0.161594 1.665835,0.364458 2.496489,0.56586 0.114935,0.06312 0.237085,0.110382 0.303342,0.132892 0.513855,0.174766 1.042604,0.26495 1.566312,0.384588 0.114959,0.07411 0.196197,0.163315 0.200504,0.276194 0.01344,0.346416 -0.260535,0.818566 -0.378788,1.126819 -0.340323,0.889679 -0.692002,1.773012 -1.038696,2.659051 -1.318231,3.368228 -2.76761,6.661402 -4.09639,10.022562 -1.204905,3.04596 -2.434474,6.07774 -3.637505,9.1248 -0.508677,1.28852 -1.453713,2.98704 -1.360641,4.45706 l 0.05478,0.0552 c 0.671875,-0.48 1.191178,-1.24853 1.714108,-1.92907 0.820508,-1.06739 1.626299,-2.16329 2.391585,-3.28493 0.728691,-1.06763 1.45288,-2.12866 2.156973,-3.20041 0.878906,-1.23107 1.749256,-2.47318 2.490288,-3.81587 0.670903,-1.21565 1.239776,-2.48746 1.738913,-3.79689 0.322746,-0.75373 0.624676,-1.52555 0.896585,-2.32407 0.536705,-1.575954 1.046007,-3.176673 1.403533,-4.825729 0.228893,-1.058108 0.236222,-2.201703 0.759103,-3.128974 0.120007,-0.213007 0.286935,-0.267192 0.467153,-0.259045 0.223623,0.04392 0.454689,0.11617 0.626319,0.146362 0.04614,0.0081 0.0919,0.01741 0.137975,0.02571 0.751494,0.166078 1.531874,0.27683 2.244827,0.605054 0.262733,0.121162 0.651593,0.282621 0.736913,0.64241 0.0902,0.379339 -0.10485,0.777799 -0.20617,1.132543 -0.33068,1.153224 -0.777653,2.276936 -1.200447,3.386585 -1.924325,4.004004 -3.733467,8.083664 -5.685441,12.069224 -0.666485,1.3608 -1.304814,2.73326 -1.856734,4.16556 -0.127265,0.33047 -0.241737,0.67981 -0.323493,1.03005 -0.02143,0.0916 -0.09486,0.32668 -0.0041,0.39378 0.111654,0.0825 0.309158,-0.11839 0.391708,-0.18862 0.352425,-0.29819 0.666192,-0.66637 0.982369,-1.01537 1.306248,-1.442 2.506776,-3.05923 3.677295,-4.65425 1.22052,-1.66307 2.481477,-3.32667 3.5295,-5.15153 0.317913,-0.55383 0.611753,-1.12695 0.888843,-1.71227 0.29405,-0.50706 0.57345,-1.02656 0.82837,-1.56468 0.48648,-1.02597 0.83015,-2.127814 1.18598,-3.221854 0.30533,-0.938514 0.57718,-1.930171 0.74879,-2.917487 0.14356,-0.504364 0.32477,-1.02769 0.60668,-1.314212 0.009,-0.0096 0.0217,-0.01355 0.032,-0.02145 0.34788,0.05671 0.75948,0.267063 0.97151,0.344168 1.05718,0.384184 2.11129,0.771659 3.18069,1.098651 -0.009,0.255496 -0.23382,0.58103 -0.33642,0.798571 -0.29632,0.629925 -0.60092,1.254516 -0.90175,1.881299 -1.1438,2.382674 -2.37985,4.700824 -3.53105,7.077524 -1.04378,2.15378 -2.10515,4.29512 -3.14761,6.44982 -0.44079,0.91119 -1.224045,2.09249 -1.231455,3.18083 l 0.0377,0.0447 c 0.51913,-0.30447 0.940745,-0.83244 1.360635,-1.29524 0.65881,-0.72587 1.30862,-1.47407 1.9296,-2.24384 2.28785,-2.83512 4.53112,-5.59547 6.03632,-9.13765 0.47625,-1.12062 0.93339,-2.26164 1.28158,-3.449054 0.22304,-0.76193 0.33791,-1.724421 0.7705,-2.368765 0.20823,-0.310418 0.52973,-0.100161 0.7922,-0.01163 0.57891,0.19659 1.19493,0.330673 1.73891,0.644859 0.18706,0.108197 0.46482,0.254534 0.50901,0.525441 0.0468,0.28565 -0.16758,0.686985 -0.26045,0.940645 -0.31036,0.84502 -0.70922,1.658824 -1.08572,2.463704 -0.87338,1.8672 -1.69263,3.77969 -2.49855,5.6892 -0.39159,0.92812 -0.96849,2.00573 -1.08676,3.0461 0.28072,-0.0154 0.51113,-0.2858 0.7183,-0.48993 0.44529,-0.43865 0.87537,-0.90632 1.28468,-1.39138 1.13586,-1.34607 2.31846,-2.67089 3.22254,-4.25557 0.4109,-0.7196 0.72092,-1.5057 1.03921,-2.28487 0.28046,-0.68637 0.53895,-1.416144 0.71675,-2.149534 0.0492,-0.20225 0.0318,-0.73056 0.17829,-0.85002 0.24342,-0.19785 0.80894,0.18388 1.04231,0.29457 0.97499,0.46217 1.94484,0.93043 2.94814,1.301354 0.30691,0.11353 0.62502,0.23102 0.94517,0.27742 0.0818,0.012 0.24757,0.0614 0.3116,-0.0239 0.11377,-0.15207 -0.23513,-0.353304 -0.3116,-0.407864 -0.43948,-0.3148 -0.90236,-0.57756 -1.36116,-0.8494 -0.79268,-0.4697 -1.60485,-0.87126 -2.41898,-1.284207 -0.29051,-0.147362 -0.76287,-0.35719 -0.87849,-0.742229 -0.0593,-0.196592 0.0424,-0.434586 0.077,-0.6271 0.0781,-0.430821 0.13363,-0.863993 0.18655,-1.299517 0.0635,-0.522688 0.15532,-1.084437 0.15452,-1.612455 -2.6e-4,-0.166185 -0.0296,-0.486052 -0.22118,-0.468488 -0.26882,0.02477 -0.49242,0.410883 -0.62735,0.64792 -0.30215,0.53084 -0.5194,1.130887 -0.76016,1.701867 -0.19579,0.463741 -0.38267,0.856299 -0.87902,0.731819 -0.74004,-0.185938 -1.54283,-0.684818 -2.19211,-1.135392 -0.26243,-0.181884 -0.57174,-0.42402 -0.62994,-0.805921 -0.15293,-1.00493 0.29593,-2.108149 0.42478,-3.090181 0.0265,-0.202553 0.17972,-0.927907 -0.0997,-0.962084 -0.29051,-0.03579 -0.59947,0.460922 -0.75293,0.692626 -0.52916,0.800502 -0.73186,1.973931 -1.39888,2.63333 -0.3773,0.372811 -0.81763,0.07244 -1.20974,-0.0937 -0.7538,-0.3192 -1.53006,-0.546081 -2.30581,-0.775914 -0.40614,-0.120402 -0.91306,-0.204656 -1.24643,-0.526666 -0.4161,-0.872418 -0.27983,-2.26252 -0.0946,-3.312943 0.0994,-0.563581 0.29259,-1.764304 -0.10859,-1.896538 -0.32616,-0.107507 -0.5935,0.253524 -1.04535,1.179512 -0.54301,1.11278 -1.01624,2.863225 -1.87281,3.237839 -0.21549,-0.04211 -0.42865,-0.100638 -0.58136,-0.124931 -0.32612,-0.052 -1.267005,-0.450129 -1.593765,-0.497162 -0.674992,-0.250278 -0.774372,-0.189425 -1.361546,-0.522804 -0.371454,-0.210598 -0.812348,-0.495982 -0.927076,-1.003726 -0.301596,-1.336099 0.200207,-2.885352 0.281119,-4.228026 0.01659,-0.276927 0.15461,-1.275856 -0.225824,-1.284818 -0.395518,-0.0097 -0.765654,0.701794 -0.950846,1.03496 -0.63844,1.150891 -0.801291,2.761173 -1.639176,3.739938 -0.473969,0.553403 -1.096243,0.207009 -1.641245,0.0349 -1.047702,-0.330588 -2.116987,-0.533348 -3.185853,-0.740394 -0.559604,-0.108492 -1.251717,-0.154737 -1.732193,-0.545038 -0.416806,-0.33864 -0.440084,-0.858443 -0.387056,-1.399338 0.101854,-1.039196 0.349435,-2.06256 0.500745,-3.093857 0.05039,-0.347165 0.302789,-1.449779 -0.14211,-1.589184 -0.416246,-0.130725 -0.895155,0.785863 -1.086239,1.101714 -0.760937,1.260553 -1.174166,3.272094 -2.226739,4.235373 -0.399767,0.365389 -1.313288,0.111351 -1.792137,0.08267 -1.510948,-0.09104 -3.025399,-0.127731 -4.53564,-0.213728 -0.420971,-0.02376 -0.863235,-0.02963 -1.282095,0.03307 -0.167632,0.02461 -0.400849,0.134168 -0.513146,-0.08267 -0.164772,-0.318718 0.100815,-1.324433 0.127125,-1.707992 0.100549,-1.4729 0.17576,-3.040117 0.09818,-4.514629 z"
         sodipodi:nodetypes="cccccscccccccccccccccccccccsccccccccccccccccccccccccscccccscccccscccccccccccsccccccccccccccccccccccscccccccccssccsscscccccccccccssscccccccccccccccccccccccc" />
      <rect
         style="fill:none;stroke:none;stroke-width:0.264583"
         id="rect312"
         width="63.946148"
         height="63.946148"
         x="59.645138"
         y="70.030441" />
    </g>
  </g>
</svg>
